<mxfile host="app.diagrams.net" modified="2024-02-26T18:24:03.043Z" agent="Mozilla/5.0 (Windows NT 10.0; Win64; x64) AppleWebKit/537.36 (KHTML, like Gecko) Chrome/121.0.0.0 Safari/537.36" etag="qoz4_Zz7mUWzHCjqnLvR" version="23.1.5" type="github">
  <diagram name="Page-1" id="STLCeSlYdTqqYEds2eKh">
    <mxGraphModel dx="1120" dy="1629" grid="1" gridSize="10" guides="1" tooltips="1" connect="1" arrows="1" fold="1" page="1" pageScale="1" pageWidth="827" pageHeight="1169" math="0" shadow="0">
      <root>
        <mxCell id="0" />
        <mxCell id="1" parent="0" />
        <mxCell id="JKu7OnpsW9zKGiZIKa88-1" value="" style="shape=image;verticalLabelPosition=bottom;labelBackgroundColor=default;verticalAlign=top;aspect=fixed;imageAspect=0;image=data:image/png,iVBORw0KGgoAAAANSUhEUgAAAT4AAACfCAMAAABX0UX9AAABIFBMVEX///8AAAD6+vpeXl4FBQU9PT3t7e1mZmaLi4t0dHRTU1NFRUXGxsapqam9vb2Hh4fe3t5Cq73n5+cAM5IuLi7T09OlpaWSkpKXrc97e3sSQJj19fUTQ5gcHBwAN5MVFRUlJSWenp7h6fNLS0tDsL+jzNsASpoeW6EiZaQla6c2NjYDO5ZsbGxiYmKHwtDs9/mmw9kvga40jLKOpMuetNO2yN/m7fVgfbQATJpQfrXP2ulHbqwcVZ8cYKSeuNR0lMCHqssAGoxWi7k0dK11iLuuuth5pMc6e65EYqjO1eeDlcMAKpG6xd05XqTV6e9+t8tOpr8elbK92+Sg09x/x9K/4eY9sb9ju8ja7/IdfKtXlruNt89kpMGw0eA3krQQg6xYGktXAAAGp0lEQVR4nO2c+1/aOhiHSxG2oZuKlykUVHSIosPjhW31tsmZbsczRXRTjrv8///FaZlg3rRN0zYF/ez7/DabpMnT5M2lZZoGAAAAAAAAAAAAAAAAAAAAAAAAAAAAAAAAAAAAAAAAAAAAAAAAGBzm1tbWzG+2d3bqg67OoyO//aZcNcrl8luLcvndtqkPukqPC700s/u2vLe3t2yzt//uAAIDYm7vl21/+zbLlYP8oCv0QPGMbnnzcHfZ9lex2D/53M9KPRo+vxFcrO8cWv5sfSuVyvt+VekRMfPhoziBfnBY2a+s2BxhGuaYKeb8nZQOGpWOwCMEQMLMh4m/pRKaB0crKw30P8LHYrX4r2Tamnl8YvnzTZdJdsm8kCp46j7H4t36KJtkyTyXrGKXkQzJPnX352RA1mens6IFmzlRrRoBVnT6znHj2C9R4h65Zo8wObqVWUgQpoQF8KRp5lmXmkkjeHT1T8VcUW7s9shvlHxSKNGnJUkjUtkAVdTXSN7V3oWhMP4Si17Pbus0l5tQvppToy89SdrwLEAFFkjOufvWh9OXSLjHINOo5qq7yudSNfq0KdoE+fA34pkxrL7EtNt9/pnI5Ypb0tWSRZE+7SVpwdyY5O112m3XmEuh9SVGnPepW0PXOPWLZMFRpU+jISwlOcVxudjBFV7fUNpxny2r8+W+yNUpCMr0ZWk/eipV2HPabhL2w+tLjPL3yX+qGkZxRqpOgVCmj49iLiPIwRjNQisQQV+Bjx2fjZxhvFU/dhXq48LfpH/4y2dIjjV6NYK+xAJ3p48ThpETHbaERaE+na7+Mr5FzZL0KS5iRdGX4u60a3U+6Q1bEBTq0/JzpA0vfUp6QZvM91ZGX+qZDGxf5soqG4ZRjeMARaU+Xoh485aeJ4n58cbqk5uH2Jpx+55Ta+wG3LDJoVSftkCMzImet04D36wjAaPPMZO6wj482pXrVugz4hi7ivVx4c/p5J5pknLVuVRTqK9k6ftSkyokIIH1sdsz59o4S0ekd5HcLs9lnCvVVzYOpcoICtsDMjIMC/Vxq785r/CXHibpHIFPU6uvWK7G8+osEQW3ndlTkmLY47ZPSKp1t4KU6jMiHLacCa4p18ed/bmfXdHN2qRr09Tqi3DY8lpwTb2+MRr+3I7fxgokifv+Tu3gNaWKcKN1LrioXh+/+XXOqdwplcf8wuibzaf9ybNdmhZVKu5KunLhVZ/1ceFv3TE06eZ43aNmjL5CSgbmoRRoUaVTn7fjAmrNfuvjVsT8noHuTVxWfL+Jsufl9oslI/xhy9lFf2OfRZrGNhr+uKWh584ugj7+tKcU4bDlvP/6uA5GZ1Y6M3ufK0TQx7/tKG1LmXKj1hyAPi78JZkrNPCteZYQQZ9jsVQPv+hrXTQHoI87Cb3vDlPEyrzgjXBofUmVH4eeN2X1DT+RgfUiqGeWnv11I1x+yPXPboTWVwj2lYOQWlNa37Sm+0PCmugx0/C3eDe/0gNm4YFqhDdtQb5yEHN5MT4uqU/BgRWLW5Cjp1SuW90eEaaOjLLhe94clD4tRZpkr17om7WCOKBHWffJfSzmz9m4xaUgQYz66M62kNX0xSBtjKIvKS5amktb31dBghj18dsLfZT82+2Mj4XRt/hUBvYQTKop/tj2xm8ECeLUp1FfGTIZiwOfpvZVUUhubHtLohSx6uM2vyzzXlvdHgoPrMLy2tZ3JUoRqz5tjK7+GPy/4Ri8vtq13flEoS9mffyb3x5+gU97CPq+2vauhW/oYtbHrZO7+H/A8RD0Xdn6hGM3dn15ulj5zbxM6wauT7fkLX0Tvx6OW5+Wdgl/Mh+vDV7fV8vekmjNrPVBn0v4kwh82gPQd2X1PZ/O1wd92gg9e5b9blyxPn0j4M/Ea1bf+yacdrW+6NPG2Pg3KbsfZfIo6X3m/slBkNeVl5Y98bxhkRrusir5o6zVXo5J2cepP+++3xh66btc7pLp3SclN9pHhu/b4rbr2FlZaRxtSP/M73rp27VvInKWJ0XgDJ1MU6NPkuuzLwKcmquv2Ual0WicHP+QKuzGshfLR1mPl43GiUW7fWz6i7mEPQe2v3b7r3b7v1vRhz8W+jXsOTGPLHsd2j83RAZvfGeNP5La7Z2/zc1fm99/ePYw/FcuHpjf2x17HX6etzBGA3J2u/nrl+2uQ/P8DAaDUW/d/rQNdvxdXDRf+0wkwMlZq/WqR2vQtQEAAAAAAAAAAAAAAAAAAAAAAAAAAAAAAAAAAAAAAAAAAAAAAAD8WfwP/FirGDD/sOUAAAAASUVORK5CYII=;" parent="1" vertex="1">
          <mxGeometry x="160" y="-158" width="160" height="80" as="geometry" />
        </mxCell>
        <mxCell id="JKu7OnpsW9zKGiZIKa88-4" value="&lt;div&gt;10.233.232.141&lt;br&gt;&lt;/div&gt;" style="text;html=1;align=center;verticalAlign=middle;resizable=0;points=[];autosize=1;strokeColor=none;fillColor=none;" parent="1" vertex="1">
          <mxGeometry x="190" y="-78" width="110" height="30" as="geometry" />
        </mxCell>
        <mxCell id="JKu7OnpsW9zKGiZIKa88-8" value="10.232.132.76" style="text;html=1;align=center;verticalAlign=middle;resizable=0;points=[];autosize=1;strokeColor=none;fillColor=none;" parent="1" vertex="1">
          <mxGeometry x="458.25" y="-71" width="100" height="30" as="geometry" />
        </mxCell>
        <mxCell id="JKu7OnpsW9zKGiZIKa88-9" value="Vault HVR" style="text;html=1;align=center;verticalAlign=middle;resizable=0;points=[];autosize=1;strokeColor=none;fillColor=none;fontStyle=1" parent="1" vertex="1">
          <mxGeometry x="200" y="-180" width="80" height="30" as="geometry" />
        </mxCell>
        <mxCell id="JKu7OnpsW9zKGiZIKa88-11" value="Vault S3 Bucket" style="text;html=1;align=center;verticalAlign=middle;resizable=0;points=[];autosize=1;strokeColor=none;fillColor=none;" parent="1" vertex="1">
          <mxGeometry x="580" y="-200" width="110" height="30" as="geometry" />
        </mxCell>
        <mxCell id="OmqUMFd_I2uRY2Q3UYxv-2" value="Amazon S3" style="sketch=0;outlineConnect=0;fontColor=#232F3E;gradientColor=none;strokeColor=#ffffff;fillColor=#232F3E;dashed=0;verticalLabelPosition=middle;verticalAlign=bottom;align=center;html=1;whiteSpace=wrap;fontSize=10;fontStyle=1;spacing=3;shape=mxgraph.aws4.productIcon;prIcon=mxgraph.aws4.s3;" vertex="1" parent="1">
          <mxGeometry x="595" y="-158" width="80" height="100" as="geometry" />
        </mxCell>
        <mxCell id="OmqUMFd_I2uRY2Q3UYxv-6" style="edgeStyle=orthogonalEdgeStyle;rounded=0;orthogonalLoop=1;jettySize=auto;html=1;" edge="1" parent="1" source="OmqUMFd_I2uRY2Q3UYxv-3">
          <mxGeometry relative="1" as="geometry">
            <mxPoint x="590" y="-117.5" as="targetPoint" />
          </mxGeometry>
        </mxCell>
        <mxCell id="OmqUMFd_I2uRY2Q3UYxv-3" value="" style="outlineConnect=0;dashed=0;verticalLabelPosition=bottom;verticalAlign=top;align=center;html=1;shape=mxgraph.aws3.ec2;fillColor=#F58534;gradientColor=none;" vertex="1" parent="1">
          <mxGeometry x="470" y="-164" width="76.5" height="93" as="geometry" />
        </mxCell>
        <mxCell id="OmqUMFd_I2uRY2Q3UYxv-4" style="edgeStyle=orthogonalEdgeStyle;rounded=0;orthogonalLoop=1;jettySize=auto;html=1;entryX=0;entryY=0.5;entryDx=0;entryDy=0;entryPerimeter=0;" edge="1" parent="1" source="JKu7OnpsW9zKGiZIKa88-1" target="OmqUMFd_I2uRY2Q3UYxv-3">
          <mxGeometry relative="1" as="geometry" />
        </mxCell>
        <mxCell id="OmqUMFd_I2uRY2Q3UYxv-7" value="EC2 Agent HVR Vault" style="text;html=1;align=center;verticalAlign=middle;resizable=0;points=[];autosize=1;strokeColor=none;fillColor=none;" vertex="1" parent="1">
          <mxGeometry x="438.25" y="-194" width="140" height="30" as="geometry" />
        </mxCell>
        <mxCell id="OmqUMFd_I2uRY2Q3UYxv-8" value="443" style="text;html=1;align=center;verticalAlign=middle;resizable=0;points=[];autosize=1;strokeColor=none;fillColor=none;" vertex="1" parent="1">
          <mxGeometry x="370" y="-123" width="40" height="30" as="geometry" />
        </mxCell>
        <mxCell id="OmqUMFd_I2uRY2Q3UYxv-9" value="Port" style="text;html=1;align=center;verticalAlign=middle;resizable=0;points=[];autosize=1;strokeColor=none;fillColor=none;" vertex="1" parent="1">
          <mxGeometry x="365" y="-150" width="50" height="30" as="geometry" />
        </mxCell>
        <mxCell id="OmqUMFd_I2uRY2Q3UYxv-10" value="Vault FDL - Finance Datalake" style="text;html=1;align=center;verticalAlign=middle;resizable=0;points=[];autosize=1;strokeColor=none;fillColor=none;fontStyle=1" vertex="1" parent="1">
          <mxGeometry x="470" y="-224" width="190" height="30" as="geometry" />
        </mxCell>
      </root>
    </mxGraphModel>
  </diagram>
</mxfile>
